<svg xmlns="http://www.w3.org/2000/svg" xmlns:xlink="http://www.w3.org/1999/xlink" aria-hidden="true" role="img" class="iconify iconify--logos" width="31.88" height="32" preserveAspectRatio="xMidYMid meet" viewBox="0 0 256 257"><defs><linearGradient id="IconifyId1813088fe1fbc01fb466" x1="-.828%" x2="57.636%" y1="7.652%" y2="78.411%"><stop offset="0%" stop-color="#41D1FF"></stop><stop offset="100%" stop-color="#BD34FE"></stop></linearGradient><linearGradient id="IconifyId1813088fe1fbc01fb467" x1="43.376%" x2="50.316%" y1="2.242%" y2="89.03%"><stop offset="0%" stop-color="#FFEA83"></stop><stop offset="8.333%" stop-color="#FFDD35"></stop><stop offset="100%" stop-color="#FFA800"></stop></linearGradient></defs><path fill="url(#IconifyId1813088fe1fbc01fb466)" d="M255.153 37.938L134.897 252.976c-2.483 4.44-8.862 4.466-11.382.048L.875 37.958c-2.746-4.814 1.371-10.646 6.827-9.67l120.385 21.517a6.537 6.537 0 0 0 2.322-.004l117.867-21.483c5.438-.991 9.574 4.796 6.877 9.62Z"></path><path fill="url(#IconifyId1813088fe1fbc01fb467)" d="M185.432.063L96.44 17.501a3.268 3.268 0 0 0-2.634 3.014l-5.474 92.456a3.268 3.268 0 0 0 3.997 3.378l24.777-5.718c2.318-.535 4.613 1.06 4.977 3.422l3.676 26.149c.362 2.358 2.633 3.949 4.979 3.397l14.997-3.46c2.345-.552 4.617 1.036 4.982 3.393l6.924 49.367c.55 3.928 5.835 4.59 7.246.936l1.357-3.677c1.41-3.654 7.029-3.016 7.543.738l1.138 7.432c.514 3.754 6.033 4.4 7.447.738l12.081-32.694c1.415-3.662 7.034-3.016 7.548.738l1.138 7.432c.514 3.754 6.033 4.4 7.447.738l14.997-3.46c2.345-.552 4.617 1.036 4.982 3.393l3.676 26.149c.362 2.358 2.659 3.957 4.977 3.422l24.777-5.718c2.318-.535 4.613 1.06 4.977 3.422l5.474 92.456a3.268 3.268 0 0 0 2.634 3.014l88.976-16.438c2.896-.534 4.994-3.06 4.994-6.012V6.98c0-2.951-2.098-5.478-4.994-6.012Z"></path></svg>
